<?xml version="1.0" encoding="UTF-8"?> <!-- Generator: Adobe Illustrator 14.0.0, SVG Export Plug-In . SVG Version: 6.00 Build 43363) --> <svg xmlns="http://www.w3.org/2000/svg" xmlns:xlink="http://www.w3.org/1999/xlink" version="1.1" id="Layer_1" x="0px" y="0px" width="213.497px" height="225.153px" viewBox="0 0 213.497 225.153" xml:space="preserve"> <g> <polygon fill-rule="evenodd" clip-rule="evenodd" fill="#969594" points="75.662,198.896 78.96,174.288 84.855,176.733 90.749,179.177 "></polygon> <polygon fill-rule="evenodd" clip-rule="evenodd" fill="#969594" points="27.009,150.629 46.74,135.561 49.179,141.457 51.617,147.353 "></polygon> <polygon fill-rule="evenodd" clip-rule="evenodd" fill="#969594" points="26.734,82.096 51.341,85.393 48.896,91.287 46.451,97.181 "></polygon> <polygon fill-rule="evenodd" clip-rule="evenodd" fill="#969594" points="75,33.441 90.068,53.173 84.171,55.612 78.275,58.051 "></polygon> <polygon fill-rule="evenodd" clip-rule="evenodd" fill="#D2CEC8" points="68.262,218.794 73.082,157.897 90.52,165.129 107.956,172.36 "></polygon> <polygon fill-rule="evenodd" clip-rule="evenodd" fill="#A32639" points="77.917,195.513 81.215,170.907 87.109,173.351 93.003,175.796 "></polygon> <polygon fill-rule="evenodd" clip-rule="evenodd" fill="#D2CEC8" points="5.975,156.882 52.443,117.23 59.658,134.673 66.875,152.116 "></polygon> <polygon fill-rule="evenodd" clip-rule="evenodd" fill="#A32639" points="29.263,147.247 48.994,132.18 51.433,138.076 53.873,143.972 "></polygon> <polygon fill-rule="evenodd" clip-rule="evenodd" fill="#A32639" points="5.708,69.06 66.605,73.88 59.373,91.316 52.141,108.753 "></polygon> <polygon fill-rule="evenodd" clip-rule="evenodd" fill="#D2CEC8" points="28.988,78.715 53.595,82.012 51.15,87.906 48.706,93.8 "></polygon> <polygon fill-rule="evenodd" clip-rule="evenodd" fill="#D2CEC8" points="67.619,6.772 107.272,53.24 89.828,60.456 72.385,67.672 "></polygon> <polygon fill-rule="evenodd" clip-rule="evenodd" fill="#A32639" points="77.254,30.06 92.322,49.791 86.426,52.23 80.529,54.67 "></polygon> <path fill-rule="evenodd" clip-rule="evenodd" fill="#A32639" d="M163.429,138.226V92.865h9.157v20.142l18.504-20.142h12.313 l-17.078,17.669l18.009,27.692h-11.851l-12.463-21.291l-7.435,7.583v13.708H163.429z M117.582,138.226V92.865h9.168v17.85h17.944 v-17.85h9.155v45.361h-9.155v-19.834H126.75v19.834H117.582z M89.045,138.226v-37.683H75.59v-7.679h36.046v7.679H98.212v37.683 H89.045z"></path> </g> </svg> 